<svg id="Layer_1" data-name="Layer 1" xmlns="http://www.w3.org/2000/svg" viewBox="0 0 592 132.45"><defs><style>.cls-1{fill:#b0b3b3;}.cls-2{fill:#fff;}.cls-3{fill:#f4a622;}.cls-4{fill:#e8682e;}.cls-5{font-size:3.52px;font-family:Helvetica-Bold, Helvetica;font-weight:700;}.cls-5,.cls-6{fill:#231f20;}</style></defs><title>Car_Rentals_new_logo</title><path class="cls-1" d="M967.5,371.81l-3.58-20.35a15.12,15.12,0,0,0-3.08-6.24,11.86,11.86,0,0,0-4-3.31,14.44,14.44,0,0,0-4.74-1.52c-.86-.15-3.85-.41-3.85-.41h0a139.61,139.61,0,0,0-23.6.84v0c-5.36.54-11,1.32-16.6,2.32-15.57,2.74-29.94,6.85-39.71,11.29h0l-1.2.56c-4.31,1.91-9.09,5.49-9.32,12,5.62,1.62,10.13,4.83,12.53,9.16a7.31,7.31,0,0,1,.59,1.74,4.12,4.12,0,0,1,.07.78,5.1,5.1,0,0,1-9.7,2.19,7.24,7.24,0,0,0-1.71-1.86l2.05,11.62c.08.43,2.17,11,13.83,11.43,10.84.91,26-.16,41.81-2.93,15.41-2.71,29.89-6.84,39.7-11.29,5.79-2.16,12.22-6.64,10.55-16.06Z" transform="translate(-387 -318)"/><path class="cls-2" d="M875.26,388.91a.39.39,0,0,1-.47-.34l-.88-5a.37.37,0,0,1,.32-.47l5-.88a.39.39,0,0,1,.47.33l.87,5a.37.37,0,0,1-.33.47l-5,.89Z" transform="translate(-387 -318)"/><path class="cls-2" d="M894.53,385.92c-6.59,1.16-9.64-2.32-10.9-9.42s.31-11.69,6.92-12.86a14.44,14.44,0,0,1,4.48-.21c.13,0,.22,0,.25.25l.45,3.48c0,.12-.07.27-.29.22a13.85,13.85,0,0,0-3.2.15c-3.34.59-4,2.41-3.06,8,.92,5.23,2.17,6.66,5.58,6.05a14.09,14.09,0,0,0,3-.89c.15-.08.35-.15.42,0l.85,3.42a.3.3,0,0,1-.1.39,16.86,16.86,0,0,1-4.39,1.35Z" transform="translate(-387 -318)"/><path class="cls-2" d="M918.16,379.51c-1.22,1.8-3.23,2.81-6.6,3.41s-5.49.31-7.21-1-3.6-4.67-4.3-8.69-.19-7.41,1.12-9.34,3.25-2.72,6.54-3.31,5.52-.38,7.28.88,3.41,4.36,4.13,8.42.28,7.64-1,9.6Zm-10.39-1c.63.5,1.36.66,3.08.35s2.48-.72,2.86-1.4c.64-1.07.58-3.74.06-6.68s-1.31-5.11-2.29-5.93c-.58-.51-1.3-.64-3.08-.33s-2.44.69-2.86,1.38c-.63,1.1-.68,3.39-.16,6.36s1.42,5.46,2.39,6.25Z" transform="translate(-387 -318)"/><path class="cls-2" d="M943.39,376.47a.39.39,0,0,1-.32.48l-4.47.78a.38.38,0,0,1-.47-.33l-2.65-15c-.32-1.89-1.7-2.17-3.83-1.8a16.48,16.48,0,0,0-3,.78c-.27.13-.36.27-.32.51l2.95,16.74a.38.38,0,0,1-.33.47l-4.46.8a.41.41,0,0,1-.48-.34l-3.56-20.23c-.05-.25.09-.4.33-.48a52.32,52.32,0,0,1,8.32-2.33c2.16-.39,4.57-.61,6,0a.91.91,0,0,0,.5-.14,20.69,20.69,0,0,1,6.3-2.11c6.19-1.08,8.67,1.25,9.48,5.91l2.5,14.13a.4.4,0,0,1-.32.48l-4.51.79a.38.38,0,0,1-.47-.33l-2.43-13.77c-.47-2.69-1.81-3.45-4.46-3a16.81,16.81,0,0,0-2.88.77c-.27.12-.42.27-.37.51l2.95,16.74Z" transform="translate(-387 -318)"/><path class="cls-3" d="M825.82,374.78a28.82,28.82,0,0,1,9.15-6.06c-.62-.42-1.28-.85-2-1.29-8.86-5.5-10.78-6.74-10.78-10.67,0-4.82,2.36-5.28,9.44-5.28a81.13,81.13,0,0,1,11.45,1.13.61.61,0,0,0,.78-.45l.68-10a.68.68,0,0,0-.57-.79,90.25,90.25,0,0,0-15-1.24c-14.59,0-21.33,4.27-21.33,17,0,7.52,3.14,10.66,12.24,16.73,1.62,1.11,3,2.07,4.21,2.93a22.62,22.62,0,0,1,1.74-2Z" transform="translate(-387 -318)"/><path class="cls-1" d="M848.5,397.23a28.68,28.68,0,0,1-3.18.37,14.75,14.75,0,0,1-5,4.63,28.55,28.55,0,0,0,3.24.17,34,34,0,0,0,5.76-.5,31.13,31.13,0,0,0,11.93-4.7,19.59,19.59,0,0,1-2.17-4.29,25.91,25.91,0,0,1-10.58,4.32Z" transform="translate(-387 -318)"/><path class="cls-1" d="M867.92,377.51s0,0,0,0c-3-5.41-10.16-8.95-18.84-8.95a32.24,32.24,0,0,0-5.77.52c-12.54,2.2-21.28,10.69-20.33,19.54,3.35-.05,4.37-.29,4.7-1-.23-6,7-12.24,16.46-13.9a27.69,27.69,0,0,1,4.94-.46c6.73,0,12.35,2.58,14.58,6.38a2.39,2.39,0,0,0,4.58-.94,2.41,2.41,0,0,0-.32-1.22Z" transform="translate(-387 -318)"/><path class="cls-4" d="M432.61,389c-.12-.68-.91-.68-1.48-.57a50.66,50.66,0,0,1-11.94,1.48c-13.08,0-16-6.83-16-26.38,0-20.93,3-27.75,16-27.75a46.3,46.3,0,0,1,12.17,1.58.83.83,0,0,0,1.13-.56l.57-10.8c0-.69-.34-.8-.8-1-3.07-1.13-8.75-1.93-15.36-1.93-22.16,0-29.9,15.58-29.9,40.37,0,25.25,7.74,39.24,29.9,39.24A54.56,54.56,0,0,0,433,400.48c.34-.1.57-.68.45-1.37L432.61,389Z" transform="translate(-387 -318)"/><path class="cls-4" d="M461.4,339.53c-7.62,0-15.59.9-19.9,2.15-.68.23-.8.92-.68,1.6l.79,8.76c.12.68,1,.68,1.7.56a112.63,112.63,0,0,1,14.11-1.13c8.87,0,12.05,1.59,12.05,8.42v4.54c0,.45-.22.57-.68.68l-13.42,1.71c-16.71,2.05-19.33,7.27-19.33,18.89,0,13.07,6.14,16.94,26.61,16.94,7.85,0,15.92-.8,19.9-2.06,1.25-.46,1.48-1,1.48-1.7V357.6c0-13.3-8.53-18.07-22.63-18.07Zm8.07,52.2c0,.34-.11.57-.79.79a39.67,39.67,0,0,1-7.17.58c-9,0-11-.92-11-9s2.5-9.66,10.69-9.66h7.62a.6.6,0,0,1,.68.69v16.6Z" transform="translate(-387 -318)"/><path class="cls-4" d="M522.5,340a75.88,75.88,0,0,0-9.21-.45,108.76,108.76,0,0,0-21.38,2.38c-.69.11-1.14.46-1.14,1.14v57.33a1.07,1.07,0,0,0,1.14,1.12h12.51a1,1,0,0,0,1.25-1.12v-47a1.17,1.17,0,0,1,.79-1.26,22.09,22.09,0,0,1,6.6-.91,53.34,53.34,0,0,1,8.76.68c.56.12.8-.22.8-.57l.56-10.46c0-.57-.12-.8-.68-.91Z" transform="translate(-387 -318)"/><path class="cls-3" d="M568.22,372.57c-1.25-2-1.81-3.29-1.81-4.44,0-.45.33-.9,1.13-1.59,7.85-4.54,10-10.69,10-20.92,0-15.58-8.76-21.38-26-21.38H528.42a1.08,1.08,0,0,0-1.14,1.14v75.05a1.09,1.09,0,0,0,1.14,1.15h12.85a1.08,1.08,0,0,0,1.13-1.15V373.14c0-.57.35-.79.92-.79h7.95c.69.1.92.45,1.83,2.16l13.19,26c.34.8.68,1,1.36,1h15.13c.91,0,.91-.59.57-1.15l-15.13-27.86Zm-19.44-10.46H543.2c-.57-.11-.8-.34-.8-.9V336c0-.46.23-.68,1.49-.68h4.89c10.23,0,13,2.62,13,12.85s-3.19,14-13,14Z" transform="translate(-387 -318)"/><path class="cls-3" d="M609.74,339.6c-18.54,0-27.17,11.36-27.17,31.72,0,19.22,7,31.39,29.22,31.39,8,0,15-1.25,19.44-3.3a1,1,0,0,0,.8-1l-.8-8.88c-.22-.44-.67-.56-1.24-.56a59.22,59.22,0,0,1-16,2.61c-10.58,0-16.38-3.06-16.38-15.25,0-.45.11-.67.68-.67h32.07c2.73,0,3.07-1.94,3.07-9.66,0-16.5-5.46-26.38-23.66-26.38Zm9.33,26.84H598c-.45,0-.69-.35-.69-.8,0-8.87,2.06-15.7,12.18-15.7,8.64,0,10.8,4.55,10.8,13.19,0,3.07-.34,3.31-1.25,3.31Z" transform="translate(-387 -318)"/><path class="cls-3" d="M665.45,339.6c-7.16,0-17.39,1.36-23.53,2.38-.69.11-1.13.45-1.13,1.14v57.31a1.08,1.08,0,0,0,1.13,1.15h12.63a1.09,1.09,0,0,0,1.13-1.15V352.9c0-.68.35-.91,1.14-1.13a36.87,36.87,0,0,1,8.07-.69c9.1,0,11,2.27,11,10.92v38.43a1.08,1.08,0,0,0,1.13,1.15h12.63a1.08,1.08,0,0,0,1.13-1.15V361.32c0-16.61-5.35-21.72-25.37-21.72Z" transform="translate(-387 -318)"/><path class="cls-3" d="M728.12,340.73h-9.56a.6.6,0,0,1-.68-.68V325.83a1.07,1.07,0,0,0-1.14-1.13H704.12a1.07,1.07,0,0,0-1.14,1.13v14.22a.6.6,0,0,1-.68.68h-7.83a1.08,1.08,0,0,0-1.15,1.13v9.22a1.08,1.08,0,0,0,1.15,1.14h7.83a.6.6,0,0,1,.68.68v37.3c0,8.3,4.67,12.51,13.76,12.51a44,44,0,0,0,9.22-1,1.6,1.6,0,0,0,1.13-1.48l.34-7.61a1,1,0,0,0-1.13-1.13h-3.53c-3.63,0-4.89-1-4.89-4.79V352.9a.6.6,0,0,1,.68-.68h9.56a1.08,1.08,0,0,0,1.14-1.14v-9.22a1.07,1.07,0,0,0-1.14-1.13Z" transform="translate(-387 -318)"/><path class="cls-3" d="M756.67,339.6c-7.63,0-15.59.9-19.92,2.16-.67.22-.79.9-.67,1.59l.8,8.75c.1.68,1,.68,1.71.57a110.16,110.16,0,0,1,14.09-1.13c8.87,0,12.06,1.58,12.06,8.41v4.55c0,.46-.23.57-.69.68l-13.42,1.71c-16.7,2-19.33,7.27-19.33,18.88,0,13.08,6.14,16.94,26.62,16.94,7.85,0,15.92-.8,19.9-2,1.25-.46,1.47-1,1.47-1.71V357.67c0-13.3-8.52-18.07-22.62-18.07Zm8.07,52.19c0,.35-.12.57-.8.8a39.73,39.73,0,0,1-7.16.56c-9,0-11-.9-11-9s2.49-9.66,10.68-9.66h7.62a.61.61,0,0,1,.69.68v16.6Z" transform="translate(-387 -318)"/><path class="cls-3" d="M843.49,376.64c-6.14,1.37-11.25,5-12.7,8.71-.07.22-.14.5-.22.83-.2,4.44-1.84,5.16-9.13,5.16h-15.5c-3.28,0-4.76-1.14-4.76-4.76V319.25A1.1,1.1,0,0,0,800,318H787.46a1.11,1.11,0,0,0-1.13,1.25v69.37c0,10.54,4.76,13.83,14.17,13.83h23.79c9.56-.06,16.18-1.76,19.27-7.69h.05a21.49,21.49,0,0,0,2-9.92,14.78,14.78,0,0,0-2.09-8.2Z" transform="translate(-387 -318)"/><path class="cls-1" d="M971,341h-1.74v5.6h-1.47V341H966.1v-1.19H971V341Zm6.58,1.52h0l-1.67,4.11h-.77l-1.72-4.27,0,0v4.25H972v-6.81h1.73l1.81,4.8,1.83-4.8H979v6.81h-1.39v-4.1Z" transform="translate(-387 -318)"/><text class="cls-5" transform="translate(452.56 114.92)">TM</text><path class="cls-6" d="M671,436.9a3.74,3.74,0,0,0-3.86-3.5,3.94,3.94,0,0,0-3.87,4c0,2.42,1.68,4.16,4.55,4.16h5.45a7.21,7.21,0,0,1-6.11,3.29,7.39,7.39,0,1,1,7.4-7.39,8.2,8.2,0,0,1-.36,2.3H666V439l2.9-.09c1.47-.06,2.13-.8,2.13-2" transform="translate(-387 -318)"/><polygon class="cls-6" points="293.97 116.66 296.78 112.53 300.67 112.53 295.89 119.2 301.06 126.41 296.93 126.41 293.85 121.92 290.74 126.41 286.85 126.41 291.94 119.38 287 112.53 291.13 112.53 293.97 116.66 293.97 116.66"/><path class="cls-6" d="M696.35,441.84a4.4,4.4,0,1,0-3.92-4.37,4.13,4.13,0,0,0,3.92,4.37m-3.71-8.59a5.08,5.08,0,0,1,4.7-3.11c3.35,0,6.4,2.84,6.4,7.33s-3,7.33-6.4,7.33a5.1,5.1,0,0,1-4.7-3.11c-.06-.12-.15-.09-.15,0v8.4H688.9v-19.6h3.59v2.7c0,.12.09.15.15,0" transform="translate(-387 -318)"/><path class="cls-6" d="M716.4,436.9a3.74,3.74,0,0,0-3.86-3.5,3.94,3.94,0,0,0-3.86,4c0,2.42,1.68,4.16,4.55,4.16h5.45a7.22,7.22,0,0,1-6.11,3.29,7.39,7.39,0,1,1,7.39-7.39,8.2,8.2,0,0,1-.36,2.3h-8.23V439l2.91-.09c1.46-.06,2.12-.8,2.12-2" transform="translate(-387 -318)"/><path class="cls-6" d="M728.82,433.1a4.4,4.4,0,1,0,3.92,4.37,4.13,4.13,0,0,0-3.92-4.37m3.71,8.59a5.1,5.1,0,0,1-4.7,3.11c-3.35,0-6.4-2.84-6.4-7.33s3.05-7.33,6.4-7.33a5.08,5.08,0,0,1,4.7,3.11c.06.12.15.09.15,0v-8.71h3.59v19.9h-3.59v-2.69c0-.12-.09-.15-.15,0" transform="translate(-387 -318)"/><path class="cls-6" d="M742.73,444.41h-3.59V430.52h3.59v13.89Zm-3.88-17.92a2.09,2.09,0,1,1,2.09,2.09,2.12,2.12,0,0,1-2.09-2.09" transform="translate(-387 -318)"/><path class="cls-6" d="M752.22,433.1a4.4,4.4,0,1,0,3.92,4.37,4.13,4.13,0,0,0-3.92-4.37m3.71,8.59a5.1,5.1,0,0,1-4.7,3.11c-3.35,0-6.4-2.84-6.4-7.33s3-7.33,6.4-7.33a5.08,5.08,0,0,1,4.7,3.11c.06.12.15.09.15,0v-2.7h3.59v13.89h-3.59v-2.69c0-.12-.09-.15-.15,0" transform="translate(-387 -318)"/><path class="cls-6" d="M774.34,433.1a4.34,4.34,0,1,0,3.85,4.31,4.06,4.06,0,0,0-3.85-4.31m3.79,8.5c0-.12-.09-.15-.15,0a5,5,0,0,1-4.63,3.11c-3.32,0-6.35-2.81-6.35-7.27s3-7.27,6.35-7.27a5,5,0,0,1,4.63,3.11c.06.12.15.09.15,0v-2.69h3.6V443.6c0,3.86-2.67,6.85-7.27,6.85A9.36,9.36,0,0,1,768,448l2.16-2.33a6.36,6.36,0,0,0,4.25,1.73c2.63,0,3.73-1.85,3.73-4.16V441.6Z" transform="translate(-387 -318)"/><path class="cls-6" d="M788.19,430.53v3c0,.06.06.09.09,0,.48-2.48,1.56-3.41,3.41-3.41H792v3.77H790.4c-1.46,0-2.21,1.14-2.21,2.75v7.75H784.6V430.53Z" transform="translate(-387 -318)"/><path class="cls-6" d="M799.92,433.34a4.14,4.14,0,1,0,3.92,4.13,4,4,0,0,0-3.92-4.13m0-3.26a7.39,7.39,0,1,1-7.42,7.39,7.4,7.4,0,0,1,7.42-7.39" transform="translate(-387 -318)"/><path class="cls-6" d="M815.06,444.86c-3.5,0-5.74-2.13-5.74-5.24v-9.09h3.59v8.82a2.2,2.2,0,1,0,4.4,0v-8.85h3.59v9.09c0,3.11-2.42,5.24-5.84,5.24" transform="translate(-387 -318)"/><path class="cls-6" d="M831.13,441.84a4.4,4.4,0,1,0-3.92-4.37,4.13,4.13,0,0,0,3.92,4.37m-3.71-8.59a5.09,5.09,0,0,1,4.7-3.11c3.35,0,6.4,2.84,6.4,7.33s-3,7.33-6.4,7.33a5.11,5.11,0,0,1-4.7-3.11c-.06-.12-.15-.09-.15,0v8.4h-3.59v-19.6h3.59v2.7c0,.12.09.15.15,0" transform="translate(-387 -318)"/><path class="cls-6" d="M636.51,430.52v2.53a7,7,0,0,0-2.4-2.16,6.53,6.53,0,0,0-3.07-.72,6.78,6.78,0,0,0-5,2.11,6.94,6.94,0,0,0-2.08,5.07A7.12,7.12,0,0,0,626,442.5a7,7,0,0,0,8,1.43,7.52,7.52,0,0,0,2.49-2v2.36h1.74V430.52Zm-1.46,3a5.47,5.47,0,0,1,1.57,4,5.71,5.71,0,0,1-.69,2.81,5.08,5.08,0,0,1-2,2,5.53,5.53,0,0,1-2.75.73,5.26,5.26,0,0,1-2.7-.73,5.53,5.53,0,0,1-2-2.07,5.57,5.57,0,0,1,0-5.55,5.34,5.34,0,0,1,4.71-2.76,5.21,5.21,0,0,1,3.86,1.6Zm6.66,10.79h1.77v-5a19.05,19.05,0,0,1,.25-3.74,4.93,4.93,0,0,1,1.68-2.62,4.32,4.32,0,0,1,2.87-1.06,3.61,3.61,0,0,1,2.27.68,3.44,3.44,0,0,1,1.18,2.06,16.11,16.11,0,0,1,.2,3.17v6.55h1.77v-7.07a11.11,11.11,0,0,0-.57-4.13,4.72,4.72,0,0,0-1.76-2.11,4.91,4.91,0,0,0-2.74-.78,5.73,5.73,0,0,0-2.8.7,7.46,7.46,0,0,0-2.35,2.11v-2.46h-1.77v13.74Zm220.15-12.59a7.54,7.54,0,0,0-2.16-1.09,8.56,8.56,0,0,0-2.63-.41,8.05,8.05,0,0,0-3.93,1,7.09,7.09,0,0,0-2.76,2.67,7.16,7.16,0,0,0-1,3.7,6.74,6.74,0,0,0,2.15,5,7.46,7.46,0,0,0,5.4,2.07,8.47,8.47,0,0,0,3.78-.81,6.68,6.68,0,0,0,2.65-2.31l-1.4-.92a6.34,6.34,0,0,1-7.93,1.68,5.22,5.22,0,0,1-2.09-2.05,5.6,5.6,0,0,1-.77-2.83,5.27,5.27,0,0,1,1.66-3.92,5.74,5.74,0,0,1,4.17-1.62,5.89,5.89,0,0,1,5,2.42l1.4-.87a6.1,6.1,0,0,0-1.5-1.71Zm5.6.81a7.38,7.38,0,0,0,.11,10,7.27,7.27,0,0,0,10.32,0,7.36,7.36,0,0,0,.11-10,7.18,7.18,0,0,0-10.54,0Zm9.06,1a5.43,5.43,0,0,1,1.59,3.94,5.57,5.57,0,0,1-.73,2.77,5,5,0,0,1-2,2,5.56,5.56,0,0,1-5.4,0,5,5,0,0,1-1.95-2,5.56,5.56,0,0,1-.72-2.77,5.46,5.46,0,0,1,1.58-3.94,5.22,5.22,0,0,1,7.58,0Zm6.12,10.73h1.77v-5.82a10.79,10.79,0,0,1,.51-3.83,4.44,4.44,0,0,1,1.58-2,3.94,3.94,0,0,1,2.29-.73,3.09,3.09,0,0,1,1.83.53,2.86,2.86,0,0,1,1.08,1.43,11.91,11.91,0,0,1,.31,3.38v7h1.77v-5.38a12.74,12.74,0,0,1,.49-4.22,4.33,4.33,0,0,1,1.55-2,4,4,0,0,1,2.35-.75,3.21,3.21,0,0,1,1.82.5,2.78,2.78,0,0,1,1.07,1.33,9.78,9.78,0,0,1,.32,3v7.5h1.8v-7.5a10.58,10.58,0,0,0-.53-3.87,4.32,4.32,0,0,0-1.61-2,4.48,4.48,0,0,0-2.52-.72,5.26,5.26,0,0,0-2.85.84,6.59,6.59,0,0,0-2.2,2.45,5.83,5.83,0,0,0-1-1.86,4.11,4.11,0,0,0-1.47-1,4.72,4.72,0,0,0-1.9-.39,5.4,5.4,0,0,0-2.82.81,6.72,6.72,0,0,0-1.89,1.91v-2.37h-1.77v13.74Zm23.78,5h1.76V441.9a7.52,7.52,0,0,0,2.49,2,6.59,6.59,0,0,0,3,.68,6.7,6.7,0,0,0,5-2.11,7.12,7.12,0,0,0,2.06-5.15,6.94,6.94,0,0,0-2.08-5.07,6.78,6.78,0,0,0-5-2.11,6.4,6.4,0,0,0-3,.72,7.1,7.1,0,0,0-2.41,2.16v-2.53h-1.76v18.76Zm9.79-16.68a5.29,5.29,0,0,1,2,2,5.62,5.62,0,0,1,.74,2.78,5.52,5.52,0,0,1-.75,2.77,5.43,5.43,0,0,1-2,2.07,5.22,5.22,0,0,1-2.68.73,5.53,5.53,0,0,1-2.75-.73,5,5,0,0,1-2-2,5.61,5.61,0,0,1-.7-2.81,5.47,5.47,0,0,1,1.57-4,5.45,5.45,0,0,1,6.58-.87Zm19.25-2.08v2.53a7,7,0,0,0-2.41-2.16,6.46,6.46,0,0,0-3.06-.72,6.78,6.78,0,0,0-5,2.11,7,7,0,0,0-2.09,5.07A7.09,7.09,0,0,0,925,442.5a7,7,0,0,0,8,1.43,7.55,7.55,0,0,0,2.5-2v2.36h1.74V430.52Zm-1.46,3a5.47,5.47,0,0,1,1.57,4,5.61,5.61,0,0,1-.7,2.81,5,5,0,0,1-2,2,5.47,5.47,0,0,1-2.75.73,5.23,5.23,0,0,1-2.69-.73,5.73,5.73,0,0,1-2.74-4.84,5.61,5.61,0,0,1,.73-2.78,5.39,5.39,0,0,1,2-2,5.46,5.46,0,0,1,6.59.87Zm6.66,10.79h1.77v-5a18.28,18.28,0,0,1,.25-3.74,5,5,0,0,1,1.67-2.62,4.37,4.37,0,0,1,2.88-1.06,3.61,3.61,0,0,1,2.27.68,3.54,3.54,0,0,1,1.18,2.06,16.11,16.11,0,0,1,.2,3.17v6.55h1.76v-7.07a11.11,11.11,0,0,0-.57-4.13,4.59,4.59,0,0,0-1.76-2.11,4.85,4.85,0,0,0-2.73-.78,5.7,5.7,0,0,0-2.8.7,7.46,7.46,0,0,0-2.35,2.11v-2.46h-1.77v13.74Zm19.41-1-2.64,6.06h1.87l8.19-18.76h-1.88L961,441.1l-4.73-10.58h-1.86l5.63,12.7Z" transform="translate(-387 -318)"/></svg>